RobotoSerifDisplay-SuperWidth1800.ufo
<glyph name="A" format="2">
  <advance width="923"/>
  <unicode hex="0041"/>
  <outline>
    <contour>
      <point x="182" y="278" type="line"/>
      <point x="162" y="236" type="line"/>
      <point x="507" y="236" type="line"/>
      <point x="506" y="278" type="line"/>
    </contour>
    <contour>
      <point x="315" y="606" type="line"/>
      <point x="539" y="46" type="line"/>
      <point x="539" y="40"/>
      <point x="518" y="36"/>
      <point x="495" y="36" type="curve" smooth="yes"/>
      <point x="476" y="36" type="line"/>
      <point x="476" y="0" type="line"/>
      <point x="916" y="0" type="line"/>
      <point x="916" y="36" type="line"/>
      <point x="911" y="36" type="line"/>
      <point x="885" y="36"/>
      <point x="870" y="41"/>
      <point x="860" y="67" type="curve" smooth="yes"/>
      <point x="576" y="710" type="line"/>
      <point x="349" y="710" type="line"/>
      <point x="68" y="82" type="line" smooth="yes"/>
      <point x="53" y="49"/>
      <point x="44" y="36"/>
      <point x="14" y="36" type="curve"/>
      <point x="8" y="36" type="line"/>
      <point x="8" y="0" type="line"/>
      <point x="186" y="0" type="line"/>
      <point x="186" y="36" type="line"/>
      <point x="168" y="36" type="line" smooth="yes"/>
      <point x="131" y="36"/>
      <point x="110" y="43"/>
      <point x="110" y="54" type="curve"/>
      <point x="341" y="590" type="line"/>
    </contour>
  </outline>
</glyph>
<glyph name="L" format="2">
  <advance width="793"/>
  <unicode hex="004C"/>
  <outline>
    <contour>
      <point x="495" y="710" type="line"/>
      <point x="495" y="674" type="line"/>
      <point x="474" y="674" type="line" smooth="yes"/>
      <point x="440" y="674"/>
      <point x="413" y="670"/>
      <point x="413" y="654" type="curve" smooth="yes"/>
      <point x="413" y="44" type="line"/>
      <point x="537" y="44" type="line" smooth="yes"/>
      <point x="629" y="44"/>
      <point x="664" y="54"/>
      <point x="673" y="94" type="curve" smooth="yes"/>
      <point x="704" y="226" type="line"/>
      <point x="767" y="226" type="line"/>
      <point x="767" y="0" type="line"/>
      <point x="25" y="0" type="line"/>
      <point x="25" y="36" type="line"/>
      <point x="37" y="36" type="line" smooth="yes"/>
      <point x="71" y="36"/>
      <point x="95" y="42"/>
      <point x="95" y="70" type="curve" smooth="yes"/>
      <point x="95" y="640" type="line" smooth="yes"/>
      <point x="95" y="668"/>
      <point x="70" y="674"/>
      <point x="37" y="674" type="curve" smooth="yes"/>
      <point x="25" y="674" type="line"/>
      <point x="25" y="710" type="line"/>
    </contour>
  </outline>
</glyph>
<glyph name="T" format="2">
  <advance width="889"/>
  <unicode hex="0054"/>
  <outline>
    <contour>
      <point x="285" y="70" type="line" smooth="yes"/>
      <point x="285" y="42"/>
      <point x="262" y="36"/>
      <point x="229" y="36" type="curve" smooth="yes"/>
      <point x="210" y="36" type="line"/>
      <point x="210" y="0" type="line"/>
      <point x="679" y="0" type="line"/>
      <point x="679" y="36" type="line"/>
      <point x="660" y="36" type="line" smooth="yes"/>
      <point x="627" y="36"/>
      <point x="603" y="42"/>
      <point x="603" y="70" type="curve" smooth="yes"/>
      <point x="603" y="666" type="line"/>
      <point x="683" y="666" type="line" smooth="yes"/>
      <point x="747" y="666"/>
      <point x="770" y="656"/>
      <point x="778" y="616" type="curve" smooth="yes"/>
      <point x="807" y="503" type="line"/>
      <point x="864" y="503" type="line"/>
      <point x="864" y="710" type="line"/>
      <point x="25" y="710" type="line"/>
      <point x="25" y="503" type="line"/>
      <point x="82" y="503" type="line"/>
      <point x="111" y="616" type="line" smooth="yes"/>
      <point x="119" y="656"/>
      <point x="142" y="666"/>
      <point x="206" y="666" type="curve" smooth="yes"/>
      <point x="285" y="666" type="line"/>
    </contour>
  </outline>
</glyph>
<glyph name="a" format="2">
  <advance width="772"/>
  <unicode hex="0061"/>
  <outline>
    <contour>
      <point x="449" y="310" type="line"/>
      <point x="166" y="284"/>
      <point x="19" y="238"/>
      <point x="19" y="128" type="curve" smooth="yes"/>
      <point x="19" y="38"/>
      <point x="93" y="-10"/>
      <point x="233" y="-10" type="curve" smooth="yes"/>
      <point x="346" y="-10"/>
      <point x="415" y="28"/>
      <point x="449" y="90" type="curve"/>
      <point x="449" y="152" type="line"/>
      <point x="427" y="90"/>
      <point x="392" y="51"/>
      <point x="354" y="51" type="curve" smooth="yes"/>
      <point x="315" y="51"/>
      <point x="292" y="78"/>
      <point x="292" y="138" type="curve" smooth="yes"/>
      <point x="292" y="221"/>
      <point x="341" y="259"/>
      <point x="449" y="273" type="curve"/>
    </contour>
    <contour>
      <point x="442" y="0" type="line"/>
      <point x="764" y="0" type="line"/>
      <point x="764" y="35" type="line"/>
      <point x="752" y="36" type="line"/>
      <point x="727" y="38"/>
      <point x="717" y="43"/>
      <point x="717" y="66" type="curve" smooth="yes"/>
      <point x="717" y="356" type="line" smooth="yes"/>
      <point x="717" y="478"/>
      <point x="589" y="531"/>
      <point x="385" y="531" type="curve" smooth="yes"/>
      <point x="209" y="531"/>
      <point x="107" y="490"/>
      <point x="72" y="468" type="curve"/>
      <point x="72" y="364" type="line"/>
      <point x="279" y="364" type="line"/>
      <point x="279" y="494" type="line"/>
      <point x="255" y="487"/>
      <point x="252" y="462"/>
      <point x="252" y="437" type="curve"/>
      <point x="265" y="467"/>
      <point x="307" y="490"/>
      <point x="348" y="490" type="curve" smooth="yes"/>
      <point x="404" y="490"/>
      <point x="425" y="462"/>
      <point x="425" y="398" type="curve" smooth="yes"/>
      <point x="425" y="85" type="line"/>
      <point x="442" y="95" type="line"/>
    </contour>
  </outline>
</glyph>
<glyph name="k" format="2">
  <advance width="888"/>
  <unicode hex="006B"/>
  <outline>
    <contour>
      <point x="877" y="0" type="line"/>
      <point x="877" y="34" type="line"/>
      <point x="874" y="34" type="line"/>
      <point x="850" y="34"/>
      <point x="829" y="46"/>
      <point x="814" y="68" type="curve" smooth="yes"/>
      <point x="602" y="382" type="line"/>
      <point x="534" y="316" type="line"/>
      <point x="710" y="447" type="line" smooth="yes"/>
      <point x="747" y="475"/>
      <point x="776" y="488"/>
      <point x="819" y="488" type="curve"/>
      <point x="822" y="488" type="line"/>
      <point x="822" y="521" type="line"/>
      <point x="557" y="521" type="line"/>
      <point x="557" y="488" type="line"/>
      <point x="568" y="488" type="line" smooth="yes"/>
      <point x="606" y="488"/>
      <point x="645" y="482"/>
      <point x="645" y="468" type="curve"/>
      <point x="378" y="278" type="line"/>
      <point x="378" y="265" type="line"/>
      <point x="509" y="44" type="line"/>
      <point x="509" y="38"/>
      <point x="481" y="34"/>
      <point x="465" y="34" type="curve" smooth="yes"/>
      <point x="462" y="34" type="line"/>
      <point x="462" y="0" type="line"/>
    </contour>
    <contour>
      <point x="364" y="750" type="line"/>
      <point x="17" y="750" type="line"/>
      <point x="17" y="715" type="line"/>
      <point x="29" y="713" type="line" smooth="yes"/>
      <point x="55" y="707"/>
      <point x="65" y="700"/>
      <point x="65" y="679" type="curve" smooth="yes"/>
      <point x="65" y="64" type="line" smooth="yes"/>
      <point x="65" y="40"/>
      <point x="43" y="34"/>
      <point x="18" y="34" type="curve" smooth="yes"/>
      <point x="17" y="34" type="line"/>
      <point x="17" y="0" type="line"/>
      <point x="407" y="0" type="line"/>
      <point x="407" y="34" type="line"/>
      <point x="405" y="34" type="line" smooth="yes"/>
      <point x="383" y="34"/>
      <point x="364" y="38"/>
      <point x="364" y="51" type="curve" smooth="yes"/>
    </contour>
  </outline>
</glyph>
<glyph name="u" format="2">
  <advance width="854"/>
  <unicode hex="0075"/>
  <outline>
    <contour>
      <point x="358" y="521" type="line"/>
      <point x="11" y="521" type="line"/>
      <point x="11" y="486" type="line"/>
      <point x="24" y="484" type="line" smooth="yes"/>
      <point x="50" y="478"/>
      <point x="58" y="472"/>
      <point x="58" y="450" type="curve" smooth="yes"/>
      <point x="58" y="161" type="line" smooth="yes"/>
      <point x="58" y="49"/>
      <point x="146" y="-10"/>
      <point x="280" y="-10" type="curve" smooth="yes"/>
      <point x="385" y="-10"/>
      <point x="473" y="31"/>
      <point x="520" y="107" type="curve"/>
      <point x="520" y="172" type="line"/>
      <point x="481" y="93"/>
      <point x="442" y="58"/>
      <point x="405" y="58" type="curve" smooth="yes"/>
      <point x="372" y="58"/>
      <point x="358" y="84"/>
      <point x="358" y="146" type="curve" smooth="yes"/>
    </contour>
    <contour>
      <point x="796" y="521" type="line"/>
      <point x="429" y="521" type="line"/>
      <point x="429" y="486" type="line"/>
      <point x="446" y="484" type="line"/>
      <point x="472" y="481"/>
      <point x="496" y="472"/>
      <point x="496" y="450" type="curve" smooth="yes"/>
      <point x="496" y="110" type="line"/>
      <point x="513" y="116" type="line"/>
      <point x="513" y="0" type="line"/>
      <point x="844" y="0" type="line"/>
      <point x="844" y="35" type="line"/>
      <point x="831" y="36" type="line" smooth="yes"/>
      <point x="805" y="38"/>
      <point x="796" y="43"/>
      <point x="796" y="66" type="curve" smooth="yes"/>
    </contour>
  </outline>
</glyph>
<glyph name="bar" format="2">
  <advance width="366"/>
  <unicode hex="007C"/>
  <outline>
    <contour>
      <point x="92" y="760" type="line"/>
      <point x="92" y="-149" type="line"/>
      <point x="275" y="-149" type="line"/>
      <point x="275" y="760" type="line"/>
    </contour>
  </outline>
</glyph>
<glyph name="logicalnot" format="2">
  <advance width="707"/>
  <unicode hex="00AC"/>
  <outline>
    <contour>
      <point x="458" y="346" type="line"/>
      <point x="458" y="150" type="line"/>
      <point x="638" y="150" type="line"/>
      <point x="638" y="393" type="line"/>
      <point x="69" y="393" type="line"/>
      <point x="69" y="308" type="line"/>
      <point x="509" y="308" type="line"/>
    </contour>
  </outline>
</glyph>
<glyph name="Thorn" format="2">
  <advance width="909"/>
  <unicode hex="00DE"/>
  <outline>
    <contour>
      <point x="497" y="710" type="line"/>
      <point x="25" y="710" type="line"/>
      <point x="25" y="654" type="line"/>
      <point x="37" y="654" type="line" smooth="yes"/>
      <point x="70" y="654"/>
      <point x="95" y="647"/>
      <point x="95" y="618" type="curve" smooth="yes"/>
      <point x="95" y="92" type="line" smooth="yes"/>
      <point x="95" y="63"/>
      <point x="71" y="56"/>
      <point x="37" y="56" type="curve" smooth="yes"/>
      <point x="25" y="56" type="line"/>
      <point x="25" y="0" type="line"/>
      <point x="497" y="0" type="line"/>
      <point x="497" y="56" type="line"/>
      <point x="467" y="56" type="line" smooth="yes"/>
      <point x="443" y="56"/>
      <point x="413" y="59"/>
      <point x="413" y="66" type="curve" smooth="yes"/>
      <point x="413" y="644" type="line" smooth="yes"/>
      <point x="413" y="651"/>
      <point x="443" y="654"/>
      <point x="467" y="654" type="curve" smooth="yes"/>
      <point x="497" y="654" type="line"/>
    </contour>
    <contour>
      <point x="291" y="154" type="line"/>
      <point x="532" y="154" type="line" smooth="yes"/>
      <point x="759" y="154"/>
      <point x="901" y="233"/>
      <point x="901" y="364" type="curve" smooth="yes"/>
      <point x="901" y="494"/>
      <point x="768" y="566"/>
      <point x="538" y="566" type="curve" smooth="yes"/>
      <point x="291" y="566" type="line"/>
      <point x="291" y="502" type="line"/>
      <point x="456" y="502" type="line" smooth="yes"/>
      <point x="534" y="502"/>
      <point x="587" y="458"/>
      <point x="587" y="362" type="curve" smooth="yes"/>
      <point x="587" y="268"/>
      <point x="534" y="218"/>
      <point x="452" y="218" type="curve" smooth="yes"/>
      <point x="291" y="218" type="line"/>
    </contour>
  </outline>
</glyph>
<glyph name="dotlessi" format="2">
  <advance width="423"/>
  <unicode hex="0131"/>
  <anchor x="215" y="540" name="top"/>
  <outline>
    <contour>
      <point x="364" y="516" type="line"/>
      <point x="17" y="516" type="line"/>
      <point x="17" y="461" type="line"/>
      <point x="26" y="459" type="line" smooth="yes"/>
      <point x="54" y="452"/>
      <point x="65" y="446"/>
      <point x="65" y="424" type="curve" smooth="yes"/>
      <point x="65" y="84" type="line" smooth="yes"/>
      <point x="65" y="60"/>
      <point x="44" y="53"/>
      <point x="18" y="53" type="curve" smooth="yes"/>
      <point x="17" y="53" type="line"/>
      <point x="17" y="0" type="line"/>
      <point x="412" y="0" type="line"/>
      <point x="412" y="53" type="line"/>
      <point x="410" y="53" type="line" smooth="yes"/>
      <point x="385" y="53"/>
      <point x="364" y="60"/>
      <point x="364" y="84" type="curve" smooth="yes"/>
    </contour>
  </outline>
</glyph>
<glyph name="tbar" format="2">
  <advance width="533"/>
  <unicode hex="0167"/>
  <outline>
    <contour>
      <point x="516" y="330" type="line"/>
      <point x="-3" y="330" type="line"/>
      <point x="-3" y="267" type="line"/>
      <point x="516" y="267" type="line"/>
    </contour>
    <component base="t" xOffset="57"/>
  </outline>
</glyph>
<glyph name="dotlessj" format="2">
  <advance width="404"/>
  <unicode hex="0237"/>
  <anchor x="207" y="535.0" name="top"/>
  <outline>
    <contour>
      <point x="60" y="-36" type="line" smooth="yes"/>
      <point x="60" y="-138"/>
      <point x="33" y="-174"/>
      <point x="-24" y="-174" type="curve" smooth="yes"/>
      <point x="-62" y="-174"/>
      <point x="-92" y="-166"/>
      <point x="-116" y="-161" type="curve"/>
      <point x="-116" y="-228" type="line"/>
      <point x="-97" y="-232"/>
      <point x="-38" y="-238"/>
      <point x="34" y="-238" type="curve" smooth="yes"/>
      <point x="255" y="-238"/>
      <point x="360" y="-183"/>
      <point x="360" y="-20" type="curve" smooth="yes"/>
      <point x="360" y="516" type="line"/>
      <point x="1" y="516" type="line"/>
      <point x="1" y="461" type="line"/>
      <point x="11" y="459" type="line" smooth="yes"/>
      <point x="38" y="452"/>
      <point x="60" y="446"/>
      <point x="60" y="424" type="curve" smooth="yes"/>
    </contour>
  </outline>
</glyph>
<glyph name="daggerdbl" format="2">
  <advance width="695"/>
  <unicode hex="2021"/>
  <outline>
    <contour>
      <point x="292" y="502" type="line"/>
      <point x="403" y="502" type="line"/>
      <point x="619" y="438" type="line"/>
      <point x="668" y="438" type="line"/>
      <point x="668" y="587" type="line"/>
      <point x="619" y="587" type="line"/>
      <point x="403" y="536" type="line"/>
      <point x="292" y="536" type="line"/>
      <point x="77" y="587" type="line"/>
      <point x="27" y="587" type="line"/>
      <point x="27" y="438" type="line"/>
      <point x="77" y="438" type="line"/>
    </contour>
    <contour>
      <point x="294" y="208" type="line"/>
      <point x="91" y="238" type="line"/>
      <point x="29" y="272" type="line"/>
      <point x="27" y="182" type="line"/>
      <point x="75" y="123" type="line"/>
      <point x="278" y="155" type="line"/>
      <point x="401" y="174" type="line"/>
      <point x="604" y="142" type="line"/>
      <point x="666" y="123" type="line"/>
      <point x="668" y="212" type="line"/>
      <point x="620" y="272" type="line"/>
      <point x="418" y="240" type="line"/>
    </contour>
    <contour>
      <point x="142" y="328" type="line"/>
      <point x="234" y="297"/>
      <point x="289" y="258"/>
      <point x="289" y="196" type="curve"/>
      <point x="289" y="130"/>
      <point x="176" y="66"/>
      <point x="176" y="30" type="curve" smooth="yes"/>
      <point x="176" y="0" type="line"/>
      <point x="519" y="0" type="line"/>
      <point x="519" y="30" type="line" smooth="yes"/>
      <point x="519" y="66"/>
      <point x="406" y="130"/>
      <point x="406" y="196" type="curve"/>
      <point x="406" y="258"/>
      <point x="462" y="297"/>
      <point x="553" y="328" type="curve"/>
      <point x="553" y="382" type="line"/>
      <point x="462" y="413"/>
      <point x="406" y="452"/>
      <point x="406" y="514" type="curve"/>
      <point x="406" y="580"/>
      <point x="519" y="644"/>
      <point x="519" y="680" type="curve" smooth="yes"/>
      <point x="519" y="710" type="line"/>
      <point x="176" y="710" type="line"/>
      <point x="176" y="680" type="line" smooth="yes"/>
      <point x="176" y="644"/>
      <point x="289" y="580"/>
      <point x="289" y="514" type="curve"/>
      <point x="289" y="452"/>
      <point x="234" y="413"/>
      <point x="142" y="382" type="curve"/>
    </contour>
  </outline>
</glyph>
<glyph name="Euro" format="2">
  <advance width="707"/>
  <unicode hex="20AC"/>
  <outline>
    <contour>
      <point x="9" y="457" type="line"/>
      <point x="9" y="394" type="line"/>
      <point x="552" y="394" type="line"/>
      <point x="552" y="457" type="line"/>
    </contour>
    <contour>
      <point x="9" y="302" type="line"/>
      <point x="9" y="238" type="line"/>
      <point x="499" y="238" type="line"/>
      <point x="499" y="302" type="line"/>
    </contour>
    <contour>
      <point x="431" y="-10" type="curve" smooth="yes"/>
      <point x="590" y="-10"/>
      <point x="673" y="65"/>
      <point x="710" y="162" type="curve"/>
      <point x="605" y="192" type="line"/>
      <point x="584" y="125"/>
      <point x="537" y="58"/>
      <point x="472" y="58" type="curve" smooth="yes"/>
      <point x="396" y="58"/>
      <point x="361" y="141"/>
      <point x="361" y="355" type="curve" smooth="yes"/>
      <point x="361" y="576"/>
      <point x="386" y="655"/>
      <point x="456" y="655" type="curve" smooth="yes"/>
      <point x="483" y="655"/>
      <point x="502" y="636"/>
      <point x="513" y="616" type="curve"/>
      <point x="551" y="630"/>
      <point x="555" y="652"/>
      <point x="479" y="664" type="curve"/>
      <point x="479" y="557" type="line"/>
      <point x="695" y="557" type="line"/>
      <point x="695" y="674" type="line"/>
      <point x="668" y="690"/>
      <point x="591" y="720"/>
      <point x="459" y="720" type="curve" smooth="yes"/>
      <point x="235" y="720"/>
      <point x="68" y="610"/>
      <point x="68" y="355" type="curve" smooth="yes"/>
      <point x="68" y="102"/>
      <point x="214" y="-10"/>
    </contour>
  </outline>
</glyph>
<glyph name="uni25B4" format="2">
  <advance width="1058"/>
  <unicode hex="25B4"/>
  <outline>
    <contour>
      <point x="21" y="0" type="line"/>
      <point x="1037" y="0" type="line"/>
      <point x="529" y="715" type="line"/>
    </contour>
  </outline>
</glyph>
<glyph name="Omega" format="2">
  <advance width="1077"/>
  <unicode hex="A7B6"/>
  <outline>
    <contour>
      <point x="538" y="720" type="curve" smooth="yes"/>
      <point x="828" y="720"/>
      <point x="996" y="602"/>
      <point x="996" y="448" type="curve" smooth="yes"/>
      <point x="996" y="288"/>
      <point x="772" y="168"/>
      <point x="622" y="79" type="curve"/>
      <point x="651" y="111" type="line"/>
      <point x="770" y="111" type="line" smooth="yes"/>
      <point x="869" y="111"/>
      <point x="913" y="118"/>
      <point x="923" y="154" type="curve" smooth="yes"/>
      <point x="936" y="214" type="line"/>
      <point x="1048" y="214" type="line"/>
      <point x="1048" y="0" type="line"/>
      <point x="578" y="0" type="line"/>
      <point x="578" y="132" type="line"/>
      <point x="651" y="224"/>
      <point x="697" y="296"/>
      <point x="697" y="443" type="curve" smooth="yes"/>
      <point x="697" y="578"/>
      <point x="649" y="652"/>
      <point x="538" y="652" type="curve" smooth="yes"/>
      <point x="428" y="652"/>
      <point x="380" y="578"/>
      <point x="380" y="443" type="curve" smooth="yes"/>
      <point x="380" y="296"/>
      <point x="426" y="224"/>
      <point x="499" y="132" type="curve"/>
      <point x="499" y="0" type="line"/>
      <point x="29" y="0" type="line"/>
      <point x="29" y="214" type="line"/>
      <point x="141" y="214" type="line"/>
      <point x="153" y="154" type="line" smooth="yes"/>
      <point x="163" y="118"/>
      <point x="209" y="111"/>
      <point x="306" y="111" type="curve" smooth="yes"/>
      <point x="426" y="111" type="line"/>
      <point x="455" y="79" type="line"/>
      <point x="305" y="168"/>
      <point x="80" y="288"/>
      <point x="80" y="448" type="curve" smooth="yes"/>
      <point x="80" y="602"/>
      <point x="249" y="720"/>
    </contour>
  </outline>
</glyph>
<glyph name="circumflex_grave" format="2">
  <advance width="642"/>
  <anchor x="309" y="564.0" name="_top"/>
  <outline>
    <contour>
      <point x="684" y="816" type="curve" smooth="yes"/>
      <point x="683" y="834"/>
      <point x="715" y="796"/>
      <point x="713" y="796" type="curve"/>
      <point x="711" y="796"/>
      <point x="709" y="772"/>
      <point x="709" y="760" type="curve"/>
      <point x="709" y="752"/>
      <point x="626" y="740"/>
      <point x="628" y="731" type="curve"/>
      <point x="550" y="709" type="line" smooth="yes"/>
      <point x="484" y="726"/>
      <point x="456" y="744"/>
      <point x="456" y="766" type="curve" smooth="yes"/>
      <point x="456" y="787"/>
      <point x="497" y="810"/>
      <point x="558" y="810" type="curve" smooth="yes"/>
      <point x="631" y="810"/>
      <point x="661" y="850"/>
    </contour>
    <component base="circumflex" xOffset="85"/>
  </outline>
</glyph>
<glyph name="five.den" format="2">
  <advance width="459"/>
  <outline>
    <contour>
      <point x="212" y="-6" type="curve" smooth="yes"/>
      <point x="92" y="-6"/>
      <point x="33" y="34"/>
      <point x="12" y="78" type="curve"/>
      <point x="89" y="104" type="line"/>
      <point x="98" y="78"/>
      <point x="128" y="42"/>
      <point x="178" y="42" type="curve" smooth="yes"/>
      <point x="219" y="42"/>
      <point x="245" y="70"/>
      <point x="245" y="118" type="curve" smooth="yes"/>
      <point x="245" y="164"/>
      <point x="228" y="190"/>
      <point x="188" y="190" type="curve" smooth="yes"/>
      <point x="160" y="190"/>
      <point x="141" y="176"/>
      <point x="129" y="150" type="curve"/>
      <point x="51" y="150" type="line"/>
      <point x="51" y="360" type="line"/>
      <point x="392" y="360" type="line"/>
      <point x="380" y="282" type="line"/>
      <point x="124" y="282" type="line"/>
      <point x="136" y="332" type="line"/>
      <point x="136" y="180" type="line"/>
      <point x="131" y="175"/>
      <point x="123" y="176"/>
      <point x="113" y="182" type="curve"/>
      <point x="146" y="214"/>
      <point x="190" y="233"/>
      <point x="264" y="233" type="curve" smooth="yes"/>
      <point x="371" y="233"/>
      <point x="432" y="190"/>
      <point x="432" y="122" type="curve" smooth="yes"/>
      <point x="432" y="45"/>
      <point x="349" y="-6"/>
    </contour>
  </outline>
</glyph>
<glyph name="ringhalfleft" format="2">
  <advance width="630"/>
  <anchor x="315" y="566.0" name="_top"/>
  <outline>
    <contour>
      <point x="316" y="698" type="line"/>
      <point x="285" y="698"/>
      <point x="263" y="688"/>
      <point x="263" y="671" type="curve" smooth="yes"/>
      <point x="263" y="655"/>
      <point x="287" y="644"/>
      <point x="316" y="644" type="curve"/>
      <point x="316" y="690" type="line"/>
      <point x="211" y="690"/>
      <point x="135" y="682"/>
      <point x="135" y="671" type="curve" smooth="yes"/>
      <point x="135" y="660"/>
      <point x="211" y="652"/>
      <point x="316" y="652" type="curve"/>
    </contour>
  </outline>
</glyph>
<glyph name="sterling.altprop" format="2">
  <advance width="789"/>
  <outline>
    <contour>
      <point x="33" y="387" type="line"/>
      <point x="33" y="315" type="line"/>
      <point x="637" y="315" type="line"/>
      <point x="637" y="387" type="line"/>
    </contour>
    <contour>
      <point x="32" y="0" type="line"/>
      <point x="757" y="0" type="line"/>
      <point x="757" y="247" type="line"/>
      <point x="644" y="247" type="line"/>
      <point x="632" y="166" type="line" smooth="yes"/>
      <point x="624" y="125"/>
      <point x="589" y="114"/>
      <point x="491" y="114" type="curve"/>
      <point x="290" y="114" type="line"/>
      <point x="191" y="74" type="line"/>
      <point x="365" y="108"/>
      <point x="434" y="179"/>
      <point x="434" y="268" type="curve" smooth="yes"/>
      <point x="434" y="373"/>
      <point x="368" y="440"/>
      <point x="368" y="537" type="curve" smooth="yes"/>
      <point x="368" y="612"/>
      <point x="399" y="655"/>
      <point x="458" y="655" type="curve" smooth="yes"/>
      <point x="496" y="655"/>
      <point x="521" y="638"/>
      <point x="539" y="610" type="curve"/>
      <point x="573" y="624"/>
      <point x="572" y="651"/>
      <point x="518" y="652" type="curve"/>
      <point x="518" y="538" type="line"/>
      <point x="734" y="538" type="line"/>
      <point x="734" y="660" type="line"/>
      <point x="680" y="691"/>
      <point x="589" y="720"/>
      <point x="440" y="720" type="curve" smooth="yes"/>
      <point x="207" y="720"/>
      <point x="77" y="636"/>
      <point x="77" y="526" type="curve" smooth="yes"/>
      <point x="77" y="404"/>
      <point x="203" y="346"/>
      <point x="203" y="237" type="curve" smooth="yes"/>
      <point x="203" y="160"/>
      <point x="138" y="115"/>
      <point x="32" y="85" type="curve"/>
    </contour>
  </outline>
</glyph>
